Coordinates
version=1
nRows=19
nColumns=63
inDegrees=yes

Units are S.I. units (second, meters, Newtons, ...)
If the header above contains a line with 'inDegrees', this indicates whether rotational values are in degrees (yes) or radians (no).

endheader
time	pelvis_tilt	pelvis_list	pelvis_rotation	pelvis_tx	pelvis_ty	pelvis_tz	hip_flexion_r	hip_adduction_r	hip_rotation_r	knee_angle_r	knee_angle_r_beta	ankle_angle_r	subtalar_angle_r	mtp_angle_r	hip_flexion_l	hip_adduction_l	hip_rotation_l	knee_angle_l	knee_angle_l_beta	ankle_angle_l	subtalar_angle_l	mtp_angle_l	L5_S1_Flex_Ext	L5_S1_Lat_Bending	L5_S1_axial_rotation	L4_L5_Flex_Ext	L4_L5_Lat_Bending	L4_L5_axial_rotation	L3_L4_Flex_Ext	L3_L4_Lat_Bending	L3_L4_axial_rotation	L2_L3_Flex_Ext	L2_L3_Lat_Bending	L2_L3_axial_rotation	L1_L2_Flex_Ext	L1_L2_Lat_Bending	L1_L2_axial_rotation	L1_T12_Flex_Ext	L1_T12_Lat_Bending	L1_T12_axial_rotation	Abs_r3	Abs_r2	Abs_r1	Abs_t1	Abs_t2	neck_flexion	neck_bending	neck_rotation	arm_flex_r	arm_add_r	arm_rot_r	elbow_flex_r	pro_sup_r	wrist_flex_r	wrist_dev_r	arm_flex_l	arm_add_l	arm_rot_l	elbow_flex_l	pro_sup_l	wrist_flex_l	wrist_dev_l
2.210526	-2.224448	-4.139156	102.479499	0.417199	0.754386	1.057738	4.742698	-3.502006	-24.060103	12.686156	0.221415	27.141896	11.949031	0.000000	6.659833	2.244712	0.354508	8.526901	0.148822	26.197538	10.860798	0.000000	0.175269	-0.378499	1.260557	0.325492	-0.503404	1.339341	0.287949	-0.920283	1.339341	0.200315	-0.920283	1.102987	0.162755	-0.771835	1.024202	0.100149	-0.586295	0.945417	1.251929	-4.281658	7.010837	0.000000	0.000000	28.170204	-9.476295	-11.206779	2.474706	-11.262248	48.714493	37.888553	75.375350	-2.624266	2.606969	9.675113	-12.196093	53.139466	44.665408	75.734252	-5.173321	6.061741
2.236842	-2.489659	-4.094148	102.452720	0.416515	0.753686	1.056640	4.450071	-3.782776	-24.177103	12.485558	0.217914	27.130520	12.209779	0.000000	6.403154	2.573834	0.515691	8.301996	0.144897	26.145722	10.545389	0.000000	0.173300	-0.393698	1.257822	0.321835	-0.523618	1.336436	0.284714	-0.957238	1.336436	0.198064	-0.957238	1.100594	0.160926	-0.802829	1.021980	0.099023	-0.609838	0.943366	1.237862	-4.453591	6.995627	0.000000	0.000000	28.172942	-9.666213	-11.003821	3.267105	-11.067258	56.992303	32.587338	68.233065	-5.302865	0.846857	9.886736	-11.532576	61.007484	39.310388	72.531989	-6.565358	3.934296
2.263158	-2.778586	-4.022967	102.403927	0.415895	0.752933	1.055343	4.128190	-4.077556	-24.277237	12.312540	0.214894	27.152640	12.411889	0.000000	6.119513	2.921583	0.788083	8.128203	0.141864	26.127396	10.063269	0.000000	0.168707	-0.412549	1.243908	0.313305	-0.548690	1.321652	0.277168	-1.003072	1.321652	0.192815	-1.003072	1.088419	0.156661	-0.841270	1.010675	0.096399	-0.639039	0.932931	1.205056	-4.666838	6.918241	0.000000	0.000000	28.182321	-9.679080	-10.847015	4.016303	-10.903729	66.123268	27.491337	60.326809	-7.369411	-0.452748	10.100317	-10.853892	71.377678	33.976526	67.678369	-7.999031	2.220922
2.289474	-3.086596	-3.945729	102.328415	0.415388	0.752148	1.053960	3.818346	-4.389317	-24.361834	12.189222	0.212742	27.219768	12.574802	0.000000	5.849753	3.281735	1.130494	8.036648	0.140266	26.140673	9.453648	0.000000	0.162697	-0.435236	1.222205	0.302144	-0.578864	1.298592	0.267295	-1.058233	1.298592	0.185946	-1.058233	1.069429	0.151080	-0.887533	0.993041	0.092965	-0.674181	0.916653	1.162127	-4.923476	6.797536	0.000000	0.000000	28.196401	-9.473893	-10.719983	4.622404	-10.746709	75.288313	22.774025	52.182964	-8.751159	-1.538774	10.300328	-10.170940	84.089788	28.854959	61.324212	-9.376437	0.964357
2.315789	-3.394763	-3.860627	102.237087	0.415009	0.751380	1.052541	3.533802	-4.695667	-24.392620	12.132839	0.211758	27.305820	12.613405	0.000000	5.593020	3.636194	1.585625	8.015948	0.139905	26.160770	8.685450	0.000000	0.154717	-0.459904	1.189003	0.287325	-0.611672	1.263316	0.254184	-1.118211	1.263316	0.176826	-1.118211	1.040378	0.143670	-0.937836	0.966065	0.088405	-0.712391	0.891753	1.105126	-5.202526	6.612880	0.000000	0.000000	28.212103	-9.009137	-10.589290	5.018935	-10.540664	84.858833	18.438016	43.751314	-9.428096	-2.535838	10.471358	-9.514812	98.421773	24.086772	53.835264	-10.578960	0.200613
2.342105	-3.693787	-3.784227	102.133364	0.414761	0.750648	1.051133	3.299686	-4.994088	-24.379362	12.150297	0.212063	27.419877	12.550021	0.000000	5.369443	3.981426	2.181820	8.062522	0.140718	26.163542	7.723520	0.000000	0.146893	-0.485542	1.148476	0.272795	-0.645771	1.220256	0.241330	-1.180547	1.220256	0.167884	-1.180547	1.004916	0.136405	-0.990118	0.933137	0.083935	-0.752105	0.861357	1.049240	-5.492551	6.387478	0.000000	0.000000	28.225113	-8.326072	-10.463405	5.150838	-10.247067	94.387015	14.566945	35.419422	-9.520371	-3.514761	10.613300	-8.889590	114.157047	19.800276	44.990176	-11.513100	-0.107344
2.368421	-3.961051	-3.720073	102.005841	0.414684	0.749982	1.049866	3.136272	-5.259725	-24.307199	12.233454	0.213514	27.580778	12.412158	0.000000	5.197776	4.283927	2.809020	8.184459	0.142846	26.185812	6.714067	0.000000	0.138134	-0.510059	1.104359	0.256529	-0.678379	1.173381	0.226940	-1.240158	1.173381	0.157873	-1.240158	0.966314	0.128271	-1.040113	0.897292	0.078930	-0.790082	0.828269	0.986678	-5.769891	6.142113	0.000000	0.000000	28.234882	-7.461665	-10.389404	5.055703	-9.847653	103.695184	11.203793	27.408213	-9.116962	-4.450801	10.694868	-8.313094	130.138164	16.031235	36.230565	-11.731453	-0.087642
2.394737	-4.193047	-3.680010	101.837922	0.414792	0.749369	1.048811	3.063844	-5.494940	-24.192519	12.375411	0.215992	27.818031	12.298220	0.000000	5.096445	4.533082	3.343678	8.382064	0.146295	26.256401	5.796517	0.000000	0.129234	-0.532733	1.063451	0.240000	-0.708535	1.129917	0.212318	-1.295287	1.129917	0.147701	-1.295287	0.930520	0.120007	-1.086349	0.864054	0.073844	-0.825203	0.797589	0.923104	-6.026381	5.914597	0.000000	0.000000	28.238746	-6.480460	-10.388237	4.751598	-9.347666	112.384713	8.434573	19.837989	-8.297272	-5.135742	10.690601	-7.845766	145.470318	12.893237	28.067136	-11.484205	0.119356
2.421053	-4.369050	-3.665969	101.655532	0.415016	0.748812	1.048032	3.079253	-5.687953	-24.114780	12.560639	0.219224	28.126366	12.308254	0.000000	5.072777	4.722174	3.888687	8.642901	0.150847	26.346807	4.860824	0.000000	0.121048	-0.550038	1.019794	0.224798	-0.731551	1.083532	0.198869	-1.337363	1.083532	0.138346	-1.337363	0.892320	0.112405	-1.121638	0.828583	0.069167	-0.852009	0.764846	0.864633	-6.222141	5.671791	0.000000	0.000000	28.235489	-5.439520	-10.422022	4.278103	-8.798565	120.129939	6.297636	12.956948	-7.131496	-5.505376	10.545847	-7.485704	159.420787	10.395960	20.884952	-10.824089	0.383349
2.447368	-4.489166	-3.671106	101.429134	0.415406	0.748315	1.047577	3.187304	-5.813094	-23.864174	12.780298	0.223058	28.458450	12.207062	0.000000	5.115224	4.842122	4.348955	8.944807	0.156116	26.467113	3.988632	0.000000	0.112166	-0.561740	0.983300	0.208304	-0.747114	1.044756	0.184278	-1.365814	1.044756	0.128195	-1.365814	0.860388	0.104157	-1.145500	0.798931	0.064092	-0.870135	0.737475	0.801191	-6.354514	5.468820	0.000000	0.000000	28.224298	-4.424864	-10.525778	3.660593	-8.250139	126.278160	4.791016	7.405854	-5.729929	-5.708989	10.244257	-7.240260	171.219655	8.500226	14.874973	-9.865807	0.595098
2.473684	-4.545891	-3.695225	101.214006	0.415893	0.747887	1.047533	3.374074	-5.882654	-23.622856	13.030283	0.227421	28.814902	12.160433	0.000000	5.240409	4.890292	4.731639	9.300764	0.162329	26.618706	3.231406	0.000000	0.102741	-0.567399	0.942562	0.190800	-0.754640	1.001472	0.168793	-1.379573	1.001472	0.117422	-1.379573	0.824742	0.095405	-1.157039	0.765832	0.058706	-0.878901	0.706922	0.733866	-6.418527	5.242247	0.000000	0.000000	28.204061	-3.407960	-10.652969	3.027090	-7.832453	131.157626	3.844481	3.328087	-4.533410	-5.868826	9.803115	-7.117616	180.536366	7.154136	10.288690	-8.863105	0.667142
2.500000	-4.554123	-3.727774	101.031925	0.416493	0.747551	1.047910	3.612704	-5.902753	-23.378636	13.294690	0.232036	29.160694	12.107243	0.000000	5.424715	4.882790	5.068499	9.682041	0.168983	26.770625	2.575341	0.000000	0.091126	-0.569624	0.892791	0.169230	-0.757600	0.948590	0.149711	-1.384985	0.948590	0.104148	-1.384985	0.781192	0.084619	-1.161578	0.725393	0.052069	-0.882348	0.669593	0.650903	-6.443704	4.965436	0.000000	0.000000	28.173870	-2.381294	-10.811247	2.522739	-7.583992	134.971844	3.329843	0.978889	-3.958430	-6.083142	9.225713	-7.142297	187.038813	6.326185	7.237643	-8.006742	0.644557
2.526316	-4.524860	-3.769244	100.887652	0.417210	0.747307	1.048710	3.895092	-5.883466	-23.130962	13.574495	0.236920	29.467558	12.016340	0.000000	5.664634	4.831058	5.354050	10.084041	0.176000	26.902193	2.022518	0.000000	0.077678	-0.569511	0.839682	0.144256	-0.757450	0.892162	0.127617	-1.384709	0.892162	0.088778	-1.384709	0.734722	0.072132	-1.161347	0.682242	0.044385	-0.882173	0.629761	0.554846	-6.442424	4.670059	0.000000	0.000000	28.135741	-1.376444	-10.979983	2.190959	-7.459341	137.613761	3.122489	0.601723	-4.133795	-6.255118	8.585188	-7.322176	190.552885	5.951747	5.935183	-7.478262	0.612207
2.552632	-4.462520	-3.812587	100.789909	0.417993	0.747165	1.049881	4.198067	-5.825378	-22.878037	13.854771	0.241811	29.703915	11.855065	0.000000	5.941311	4.740216	5.587542	10.487566	0.183043	26.998222	1.596675	0.000000	0.062468	-0.566485	0.786260	0.116008	-0.753425	0.835401	0.102628	-1.377351	0.835401	0.071394	-1.377351	0.687977	0.058007	-1.155176	0.638836	0.035694	-0.877485	0.589695	0.446199	-6.408190	4.372941	0.000000	0.000000	28.091837	-0.432820	-11.132053	2.002849	-7.405954	138.781745	3.105299	2.368785	-4.869157	-6.335815	7.935221	-7.637741	190.851245	5.973092	6.523101	-7.350703	0.690152
2.578947	-4.376979	-3.869767	100.750068	0.418775	0.747104	1.051326	4.510235	-5.741567	-22.645162	14.118693	0.246418	29.840873	11.613384	0.000000	6.248043	4.631110	5.820007	10.868379	0.189689	27.017002	1.235033	0.000000	0.048538	-0.561238	0.735128	0.090141	-0.746447	0.781074	0.079744	-1.364595	0.781074	0.055475	-1.364595	0.643237	0.045073	-1.144477	0.597292	0.027735	-0.869358	0.551346	0.346705	-6.348839	4.088563	0.000000	0.000000	28.051873	0.378104	-11.263314	1.888551	-7.395796	138.051872	3.225448	6.379243	-5.978545	-6.309376	7.325137	-8.039863	187.890553	6.267017	9.153919	-7.557498	0.965130
2.605263	-4.279514	-3.954658	100.742621	0.419593	0.747117	1.052853	4.827547	-5.638009	-22.413212	14.344906	0.250366	29.888986	11.283417	0.000000	6.572008	4.506755	5.963605	11.197152	0.195427	26.967941	1.038460	0.000000	0.039824	-0.556476	0.697041	0.073957	-0.740113	0.740606	0.065426	-1.353016	0.740606	0.045514	-1.353016	0.609911	0.036980	-1.134766	0.566346	0.022755	-0.861981	0.522781	0.284456	-6.294967	3.876733	0.000000	0.000000	28.019054	1.025608	-11.424110	2.109164	-7.013269	142.456471	2.255559	5.814008	-6.605651	-6.821892	6.830722	-8.551704	181.876048	6.737905	13.356228	-8.141691	1.178559
2.631579	-4.118704	-4.058374	100.772460	0.420165	0.747159	1.054447	5.142387	-5.482692	-22.245084	14.521685	0.253451	29.863121	10.973223	0.000000	6.916951	4.335676	6.080559	11.488863	0.200518	26.888983	0.925197	0.000000	0.039475	-0.540045	0.665643	0.073308	-0.718259	0.707246	0.064853	-1.313064	0.707246	0.045115	-1.313064	0.582438	0.036656	-1.101259	0.540835	0.022556	-0.836529	0.499232	0.281963	-6.109092	3.702107	0.000000	0.000000	27.996957	1.412779	-11.489445	2.411817	-6.774271	145.771502	1.527251	5.400040	-7.070608	-7.192740	6.745180	-8.654230	179.105373	6.428146	13.309004	-8.624286	0.627188
2.657895	-3.948118	-4.181191	100.799219	0.420618	0.747144	1.055907	5.432978	-5.320347	-22.117216	14.635929	0.255445	29.811508	10.718593	0.000000	7.238381	4.177709	6.320411	11.694897	0.204114	26.754375	0.647915	0.000000	0.047373	-0.520412	0.641168	0.087976	-0.692148	0.681241	0.077829	-1.265330	0.681241	0.054143	-1.265330	0.561022	0.043990	-1.061224	0.520949	0.027069	-0.806118	0.480876	0.338380	-5.887004	3.565983	0.000000	0.000000	27.989689	1.555339	-11.526369	2.733399	-6.634015	148.077776	0.976335	4.916087	-7.304146	-7.430791	6.771051	-8.814705	175.220533	6.326188	13.371368	-9.286347	0.052391
2.684211	-3.823799	-4.333451	100.828096	0.421027	0.746959	1.057266	5.701842	-5.216588	-22.113952	14.702387	0.256605	29.811126	10.656538	0.000000	7.566679	4.060049	6.352774	11.849544	0.206814	26.692810	0.660830	0.000000	0.061443	-0.505042	0.621595	0.114106	-0.671706	0.660444	0.100945	-1.227960	0.660444	0.070223	-1.227960	0.543895	0.057056	-1.029882	0.505046	0.035109	-0.782310	0.466196	0.438881	-5.713138	3.457124	0.000000	0.000000	27.993965	1.508093	-11.521480	2.995443	-6.604406	148.469301	0.725948	4.692364	-7.621952	-7.321269	6.849309	-9.076570	170.169552	6.237526	13.661155	-9.821246	-0.301576
